<svg width="83" height="83" xmlns="http://www.w3.org/2000/svg" xmlns:xlink="http://www.w3.org/1999/xlink" overflow="hidden"><defs><clipPath id="clip0"><rect x="2463" y="1211" width="83" height="83"/></clipPath></defs><g clip-path="url(#clip0)" transform="translate(-2463 -1211)"><path d="M2493.5 1290C2480.52 1290 2470 1280.6 2470 1269 2470 1257.4 2480.52 1248 2493.5 1248L2493.5 1258.5C2486.32 1258.5 2480.5 1263.2 2480.5 1269 2480.5 1274.8 2486.32 1279.5 2493.5 1279.5Z" fill="#EDE6E3" fill-rule="evenodd"/><path d="M2514.99 1269.44C2514.73 1280.87 2504.51 1290 2492 1290L2492 1279.5C2498.79 1279.5 2504.34 1274.94 2504.5 1269.24Z" fill="#EDE6E3" fill-rule="evenodd"/><rect x="2505" y="1218" width="10" height="55" fill="#EDE6E3"/><path d="M2532.17 1241C2517.81 1241.08 2506.1 1231.52 2506 1219.64 2505.99 1218.54 2506.09 1217.44 2506.28 1216.34L2515.43 1217.47C2513.89 1224.17 2520.07 1230.51 2529.22 1231.63 2530.17 1231.75 2531.13 1231.81 2532.1 1231.8Z" fill="#EDE6E3" fill-rule="evenodd"/><path d="M2527 1236.5C2527 1234.01 2529.01 1232 2531.5 1232 2533.99 1232 2536 1234.01 2536 1236.5 2536 1238.99 2533.99 1241 2531.5 1241 2529.01 1241 2527 1238.99 2527 1236.5Z" fill="#EDE6E3" fill-rule="evenodd"/><path d="M2487 1253.5C2487 1250.46 2489.46 1248 2492.5 1248 2495.54 1248 2498 1250.46 2498 1253.5 2498 1256.54 2495.54 1259 2492.5 1259 2489.46 1259 2487 1256.54 2487 1253.5Z" fill="#EDE6E3" fill-rule="evenodd"/><path d="M2505 1219C2505 1216.24 2507.24 1214 2510 1214 2512.76 1214 2515 1216.24 2515 1219 2515 1221.76 2512.76 1224 2510 1224 2507.24 1224 2505 1221.76 2505 1219Z" fill="#EDE6E3" fill-rule="evenodd"/></g></svg>